<mxfile host="app.diagrams.net" modified="2023-05-05T13:36:51.912Z" agent="Mozilla/5.0 (Windows NT 10.0; Win64; x64) AppleWebKit/537.36 (KHTML, like Gecko) Chrome/112.0.0.0 Safari/537.36" etag="ftqHGuZlBDpqhlKrTq99" version="21.1.8" type="device">
  <diagram name="PÃ¡gina-1" id="iLrlkgmCJSCl_Zy9NutN">
    <mxGraphModel dx="2261" dy="796" grid="1" gridSize="10" guides="1" tooltips="1" connect="1" arrows="1" fold="1" page="1" pageScale="1" pageWidth="827" pageHeight="1169" math="0" shadow="0">
      <root>
        <mxCell id="0" />
        <mxCell id="1" parent="0" />
        <mxCell id="gboxFFnKf-YxrjdxIKWj-2" value="&lt;font style=&quot;font-size: 18px;&quot;&gt;Perfil&lt;/font&gt;" style="rounded=0;whiteSpace=wrap;html=1;" vertex="1" parent="1">
          <mxGeometry x="220" y="175" width="150" height="50" as="geometry" />
        </mxCell>
        <mxCell id="gboxFFnKf-YxrjdxIKWj-3" value="&lt;font style=&quot;font-size: 18px;&quot;&gt;Usuario&lt;/font&gt;" style="rounded=0;whiteSpace=wrap;html=1;" vertex="1" parent="1">
          <mxGeometry x="-370" y="175" width="150" height="50" as="geometry" />
        </mxCell>
        <mxCell id="gboxFFnKf-YxrjdxIKWj-5" value="&lt;span style=&quot;font-size: 48px;&quot;&gt;Der desafio TechMan:&lt;/span&gt;" style="text;html=1;align=center;verticalAlign=middle;resizable=0;points=[];autosize=1;strokeColor=none;fillColor=none;" vertex="1" parent="1">
          <mxGeometry x="-265" y="28" width="490" height="70" as="geometry" />
        </mxCell>
        <mxCell id="gboxFFnKf-YxrjdxIKWj-6" value="possui" style="rhombus;whiteSpace=wrap;html=1;" vertex="1" parent="1">
          <mxGeometry x="-40" y="160" width="80" height="80" as="geometry" />
        </mxCell>
        <mxCell id="gboxFFnKf-YxrjdxIKWj-9" value="" style="endArrow=none;html=1;rounded=0;exitX=1;exitY=0.5;exitDx=0;exitDy=0;entryX=0;entryY=0.5;entryDx=0;entryDy=0;" edge="1" parent="1" source="gboxFFnKf-YxrjdxIKWj-3" target="gboxFFnKf-YxrjdxIKWj-6">
          <mxGeometry width="50" height="50" relative="1" as="geometry">
            <mxPoint x="10" y="300" as="sourcePoint" />
            <mxPoint x="60" y="250" as="targetPoint" />
          </mxGeometry>
        </mxCell>
        <mxCell id="gboxFFnKf-YxrjdxIKWj-10" value="" style="endArrow=none;html=1;rounded=0;entryX=0;entryY=0.5;entryDx=0;entryDy=0;exitX=1;exitY=0.5;exitDx=0;exitDy=0;" edge="1" parent="1" source="gboxFFnKf-YxrjdxIKWj-6" target="gboxFFnKf-YxrjdxIKWj-2">
          <mxGeometry width="50" height="50" relative="1" as="geometry">
            <mxPoint x="20" y="310" as="sourcePoint" />
            <mxPoint x="70" y="260" as="targetPoint" />
          </mxGeometry>
        </mxCell>
        <mxCell id="gboxFFnKf-YxrjdxIKWj-11" value="&lt;font style=&quot;font-size: 18px;&quot;&gt;1&lt;/font&gt;" style="text;html=1;align=center;verticalAlign=middle;resizable=0;points=[];autosize=1;strokeColor=none;fillColor=none;" vertex="1" parent="1">
          <mxGeometry x="-220" y="170" width="30" height="40" as="geometry" />
        </mxCell>
        <mxCell id="gboxFFnKf-YxrjdxIKWj-12" value="&lt;font style=&quot;font-size: 18px;&quot;&gt;1&lt;/font&gt;" style="text;html=1;align=center;verticalAlign=middle;resizable=0;points=[];autosize=1;strokeColor=none;fillColor=none;" vertex="1" parent="1">
          <mxGeometry x="190" y="170" width="30" height="40" as="geometry" />
        </mxCell>
        <mxCell id="gboxFFnKf-YxrjdxIKWj-13" value="&lt;font size=&quot;3&quot;&gt;perfil&lt;/font&gt;" style="ellipse;whiteSpace=wrap;html=1;" vertex="1" parent="1">
          <mxGeometry x="354" y="300" width="120" height="60" as="geometry" />
        </mxCell>
        <mxCell id="gboxFFnKf-YxrjdxIKWj-14" value="&lt;font size=&quot;3&quot;&gt;&lt;u&gt;id&lt;/u&gt;&lt;/font&gt;" style="ellipse;whiteSpace=wrap;html=1;" vertex="1" parent="1">
          <mxGeometry x="-460" y="270" width="120" height="60" as="geometry" />
        </mxCell>
        <mxCell id="gboxFFnKf-YxrjdxIKWj-15" value="&lt;font style=&quot;font-size: 14px;&quot;&gt;perfil&lt;/font&gt;" style="ellipse;whiteSpace=wrap;html=1;" vertex="1" parent="1">
          <mxGeometry x="-250" y="270" width="120" height="60" as="geometry" />
        </mxCell>
        <mxCell id="gboxFFnKf-YxrjdxIKWj-16" value="&lt;font size=&quot;3&quot;&gt;senha&lt;/font&gt;" style="ellipse;whiteSpace=wrap;html=1;" vertex="1" parent="1">
          <mxGeometry x="-355" y="360" width="120" height="60" as="geometry" />
        </mxCell>
        <mxCell id="gboxFFnKf-YxrjdxIKWj-17" value="&lt;font size=&quot;3&quot;&gt;&lt;u&gt;id&lt;/u&gt;&lt;/font&gt;" style="ellipse;whiteSpace=wrap;html=1;" vertex="1" parent="1">
          <mxGeometry x="130" y="300" width="120" height="60" as="geometry" />
        </mxCell>
        <mxCell id="gboxFFnKf-YxrjdxIKWj-18" value="" style="endArrow=none;html=1;rounded=0;entryX=0;entryY=0;entryDx=0;entryDy=0;exitX=0.5;exitY=1;exitDx=0;exitDy=0;" edge="1" parent="1" source="gboxFFnKf-YxrjdxIKWj-3" target="gboxFFnKf-YxrjdxIKWj-15">
          <mxGeometry width="50" height="50" relative="1" as="geometry">
            <mxPoint x="-290" y="230" as="sourcePoint" />
            <mxPoint x="230" y="210" as="targetPoint" />
          </mxGeometry>
        </mxCell>
        <mxCell id="gboxFFnKf-YxrjdxIKWj-19" value="" style="endArrow=none;html=1;rounded=0;entryX=1;entryY=0;entryDx=0;entryDy=0;exitX=0.5;exitY=1;exitDx=0;exitDy=0;" edge="1" parent="1" source="gboxFFnKf-YxrjdxIKWj-3" target="gboxFFnKf-YxrjdxIKWj-14">
          <mxGeometry width="50" height="50" relative="1" as="geometry">
            <mxPoint x="60" y="220" as="sourcePoint" />
            <mxPoint x="240" y="220" as="targetPoint" />
          </mxGeometry>
        </mxCell>
        <mxCell id="gboxFFnKf-YxrjdxIKWj-20" value="" style="endArrow=none;html=1;rounded=0;entryX=0.5;entryY=0;entryDx=0;entryDy=0;exitX=0.5;exitY=1;exitDx=0;exitDy=0;" edge="1" parent="1" source="gboxFFnKf-YxrjdxIKWj-3" target="gboxFFnKf-YxrjdxIKWj-16">
          <mxGeometry width="50" height="50" relative="1" as="geometry">
            <mxPoint x="70" y="230" as="sourcePoint" />
            <mxPoint x="250" y="230" as="targetPoint" />
          </mxGeometry>
        </mxCell>
        <mxCell id="gboxFFnKf-YxrjdxIKWj-21" value="" style="endArrow=none;html=1;rounded=0;entryX=0.5;entryY=1;entryDx=0;entryDy=0;exitX=1;exitY=0;exitDx=0;exitDy=0;" edge="1" parent="1" source="gboxFFnKf-YxrjdxIKWj-17" target="gboxFFnKf-YxrjdxIKWj-2">
          <mxGeometry width="50" height="50" relative="1" as="geometry">
            <mxPoint x="50" y="210" as="sourcePoint" />
            <mxPoint x="230" y="210" as="targetPoint" />
          </mxGeometry>
        </mxCell>
        <mxCell id="gboxFFnKf-YxrjdxIKWj-22" value="" style="endArrow=none;html=1;rounded=0;entryX=0.5;entryY=1;entryDx=0;entryDy=0;exitX=0;exitY=0;exitDx=0;exitDy=0;" edge="1" parent="1" source="gboxFFnKf-YxrjdxIKWj-13" target="gboxFFnKf-YxrjdxIKWj-2">
          <mxGeometry width="50" height="50" relative="1" as="geometry">
            <mxPoint x="60" y="220" as="sourcePoint" />
            <mxPoint x="240" y="220" as="targetPoint" />
          </mxGeometry>
        </mxCell>
        <mxCell id="gboxFFnKf-YxrjdxIKWj-24" value="&lt;font style=&quot;font-size: 18px;&quot;&gt;Comentario&lt;/font&gt;" style="rounded=0;whiteSpace=wrap;html=1;" vertex="1" parent="1">
          <mxGeometry x="230" y="515" width="150" height="50" as="geometry" />
        </mxCell>
        <mxCell id="gboxFFnKf-YxrjdxIKWj-25" value="&lt;font style=&quot;font-size: 18px;&quot;&gt;Equipamento&lt;/font&gt;" style="rounded=0;whiteSpace=wrap;html=1;" vertex="1" parent="1">
          <mxGeometry x="-370" y="515" width="150" height="50" as="geometry" />
        </mxCell>
        <mxCell id="gboxFFnKf-YxrjdxIKWj-26" value="possui" style="rhombus;whiteSpace=wrap;html=1;" vertex="1" parent="1">
          <mxGeometry x="-30" y="500" width="80" height="80" as="geometry" />
        </mxCell>
        <mxCell id="gboxFFnKf-YxrjdxIKWj-27" value="" style="endArrow=none;html=1;rounded=0;exitX=1;exitY=0.5;exitDx=0;exitDy=0;entryX=0;entryY=0.5;entryDx=0;entryDy=0;" edge="1" parent="1" source="gboxFFnKf-YxrjdxIKWj-25" target="gboxFFnKf-YxrjdxIKWj-26">
          <mxGeometry width="50" height="50" relative="1" as="geometry">
            <mxPoint x="20" y="640" as="sourcePoint" />
            <mxPoint x="70" y="590" as="targetPoint" />
          </mxGeometry>
        </mxCell>
        <mxCell id="gboxFFnKf-YxrjdxIKWj-28" value="" style="endArrow=none;html=1;rounded=0;entryX=0;entryY=0.5;entryDx=0;entryDy=0;exitX=1;exitY=0.5;exitDx=0;exitDy=0;" edge="1" parent="1" source="gboxFFnKf-YxrjdxIKWj-26" target="gboxFFnKf-YxrjdxIKWj-24">
          <mxGeometry width="50" height="50" relative="1" as="geometry">
            <mxPoint x="30" y="650" as="sourcePoint" />
            <mxPoint x="80" y="600" as="targetPoint" />
          </mxGeometry>
        </mxCell>
        <mxCell id="gboxFFnKf-YxrjdxIKWj-29" value="&lt;font style=&quot;font-size: 18px;&quot;&gt;1&lt;/font&gt;" style="text;html=1;align=center;verticalAlign=middle;resizable=0;points=[];autosize=1;strokeColor=none;fillColor=none;" vertex="1" parent="1">
          <mxGeometry x="-210" y="510" width="30" height="40" as="geometry" />
        </mxCell>
        <mxCell id="gboxFFnKf-YxrjdxIKWj-30" value="&lt;font style=&quot;font-size: 18px;&quot;&gt;(1, n)&lt;/font&gt;" style="text;html=1;align=center;verticalAlign=middle;resizable=0;points=[];autosize=1;strokeColor=none;fillColor=none;" vertex="1" parent="1">
          <mxGeometry x="165" y="510" width="70" height="40" as="geometry" />
        </mxCell>
        <mxCell id="gboxFFnKf-YxrjdxIKWj-31" value="&lt;font size=&quot;3&quot;&gt;perfil&lt;/font&gt;" style="ellipse;whiteSpace=wrap;html=1;" vertex="1" parent="1">
          <mxGeometry x="390" y="580" width="120" height="60" as="geometry" />
        </mxCell>
        <mxCell id="gboxFFnKf-YxrjdxIKWj-32" value="&lt;font size=&quot;3&quot;&gt;descricao&lt;/font&gt;" style="ellipse;whiteSpace=wrap;html=1;" vertex="1" parent="1">
          <mxGeometry x="-533" y="580" width="120" height="60" as="geometry" />
        </mxCell>
        <mxCell id="gboxFFnKf-YxrjdxIKWj-33" value="&lt;font style=&quot;font-size: 14px;&quot;&gt;data&lt;/font&gt;" style="ellipse;whiteSpace=wrap;html=1;" vertex="1" parent="1">
          <mxGeometry x="-190" y="585" width="120" height="60" as="geometry" />
        </mxCell>
        <mxCell id="gboxFFnKf-YxrjdxIKWj-34" value="&lt;font size=&quot;3&quot;&gt;ativo&lt;/font&gt;" style="ellipse;whiteSpace=wrap;html=1;" vertex="1" parent="1">
          <mxGeometry x="-510" y="650" width="120" height="60" as="geometry" />
        </mxCell>
        <mxCell id="gboxFFnKf-YxrjdxIKWj-35" value="&lt;font size=&quot;3&quot;&gt;&lt;u&gt;id&lt;/u&gt;&lt;/font&gt;" style="ellipse;whiteSpace=wrap;html=1;" vertex="1" parent="1">
          <mxGeometry x="130" y="580" width="120" height="60" as="geometry" />
        </mxCell>
        <mxCell id="gboxFFnKf-YxrjdxIKWj-36" value="" style="endArrow=none;html=1;rounded=0;entryX=0;entryY=0;entryDx=0;entryDy=0;exitX=0.5;exitY=1;exitDx=0;exitDy=0;" edge="1" parent="1" source="gboxFFnKf-YxrjdxIKWj-25" target="gboxFFnKf-YxrjdxIKWj-33">
          <mxGeometry width="50" height="50" relative="1" as="geometry">
            <mxPoint x="-280" y="570" as="sourcePoint" />
            <mxPoint x="240" y="550" as="targetPoint" />
          </mxGeometry>
        </mxCell>
        <mxCell id="gboxFFnKf-YxrjdxIKWj-37" value="" style="endArrow=none;html=1;rounded=0;entryX=1;entryY=0;entryDx=0;entryDy=0;exitX=0.5;exitY=1;exitDx=0;exitDy=0;" edge="1" parent="1" source="gboxFFnKf-YxrjdxIKWj-25" target="gboxFFnKf-YxrjdxIKWj-32">
          <mxGeometry width="50" height="50" relative="1" as="geometry">
            <mxPoint x="70" y="560" as="sourcePoint" />
            <mxPoint x="250" y="560" as="targetPoint" />
          </mxGeometry>
        </mxCell>
        <mxCell id="gboxFFnKf-YxrjdxIKWj-38" value="" style="endArrow=none;html=1;rounded=0;entryX=1;entryY=0;entryDx=0;entryDy=0;exitX=0.5;exitY=1;exitDx=0;exitDy=0;" edge="1" parent="1" source="gboxFFnKf-YxrjdxIKWj-25" target="gboxFFnKf-YxrjdxIKWj-34">
          <mxGeometry width="50" height="50" relative="1" as="geometry">
            <mxPoint x="80" y="570" as="sourcePoint" />
            <mxPoint x="260" y="570" as="targetPoint" />
          </mxGeometry>
        </mxCell>
        <mxCell id="gboxFFnKf-YxrjdxIKWj-39" value="" style="endArrow=none;html=1;rounded=0;entryX=0.5;entryY=1;entryDx=0;entryDy=0;exitX=1;exitY=0;exitDx=0;exitDy=0;" edge="1" parent="1" source="gboxFFnKf-YxrjdxIKWj-35" target="gboxFFnKf-YxrjdxIKWj-24">
          <mxGeometry width="50" height="50" relative="1" as="geometry">
            <mxPoint x="60" y="550" as="sourcePoint" />
            <mxPoint x="240" y="550" as="targetPoint" />
          </mxGeometry>
        </mxCell>
        <mxCell id="gboxFFnKf-YxrjdxIKWj-40" value="" style="endArrow=none;html=1;rounded=0;entryX=0.5;entryY=1;entryDx=0;entryDy=0;exitX=0;exitY=0;exitDx=0;exitDy=0;" edge="1" parent="1" source="gboxFFnKf-YxrjdxIKWj-31" target="gboxFFnKf-YxrjdxIKWj-24">
          <mxGeometry width="50" height="50" relative="1" as="geometry">
            <mxPoint x="70" y="560" as="sourcePoint" />
            <mxPoint x="250" y="560" as="targetPoint" />
          </mxGeometry>
        </mxCell>
        <mxCell id="gboxFFnKf-YxrjdxIKWj-41" value="&lt;font size=&quot;3&quot;&gt;&lt;u&gt;id&lt;/u&gt;&lt;/font&gt;" style="ellipse;whiteSpace=wrap;html=1;" vertex="1" parent="1">
          <mxGeometry x="-310" y="720" width="120" height="60" as="geometry" />
        </mxCell>
        <mxCell id="gboxFFnKf-YxrjdxIKWj-42" value="&lt;font size=&quot;3&quot;&gt;equipamento&lt;/font&gt;" style="ellipse;whiteSpace=wrap;html=1;" vertex="1" parent="1">
          <mxGeometry x="-200" y="660" width="120" height="60" as="geometry" />
        </mxCell>
        <mxCell id="gboxFFnKf-YxrjdxIKWj-43" value="&lt;font size=&quot;3&quot;&gt;imagem&lt;/font&gt;" style="ellipse;whiteSpace=wrap;html=1;" vertex="1" parent="1">
          <mxGeometry x="-440" y="720" width="120" height="60" as="geometry" />
        </mxCell>
        <mxCell id="gboxFFnKf-YxrjdxIKWj-44" value="" style="endArrow=none;html=1;rounded=0;entryX=0;entryY=0;entryDx=0;entryDy=0;exitX=0.5;exitY=1;exitDx=0;exitDy=0;" edge="1" parent="1" source="gboxFFnKf-YxrjdxIKWj-25" target="gboxFFnKf-YxrjdxIKWj-42">
          <mxGeometry width="50" height="50" relative="1" as="geometry">
            <mxPoint x="-430" y="520" as="sourcePoint" />
            <mxPoint x="-338" y="629" as="targetPoint" />
          </mxGeometry>
        </mxCell>
        <mxCell id="gboxFFnKf-YxrjdxIKWj-45" value="" style="endArrow=none;html=1;rounded=0;entryX=0.5;entryY=0;entryDx=0;entryDy=0;exitX=0.5;exitY=1;exitDx=0;exitDy=0;" edge="1" parent="1" source="gboxFFnKf-YxrjdxIKWj-25" target="gboxFFnKf-YxrjdxIKWj-43">
          <mxGeometry width="50" height="50" relative="1" as="geometry">
            <mxPoint x="-470" y="590" as="sourcePoint" />
            <mxPoint x="-328" y="639" as="targetPoint" />
          </mxGeometry>
        </mxCell>
        <mxCell id="gboxFFnKf-YxrjdxIKWj-46" value="" style="endArrow=none;html=1;rounded=0;entryX=0.5;entryY=0;entryDx=0;entryDy=0;exitX=0.5;exitY=1;exitDx=0;exitDy=0;" edge="1" parent="1" source="gboxFFnKf-YxrjdxIKWj-25" target="gboxFFnKf-YxrjdxIKWj-41">
          <mxGeometry width="50" height="50" relative="1" as="geometry">
            <mxPoint x="-520" y="440" as="sourcePoint" />
            <mxPoint x="-318" y="649" as="targetPoint" />
          </mxGeometry>
        </mxCell>
        <mxCell id="gboxFFnKf-YxrjdxIKWj-50" value="&lt;font size=&quot;3&quot;&gt;data&lt;/font&gt;" style="ellipse;whiteSpace=wrap;html=1;" vertex="1" parent="1">
          <mxGeometry x="390" y="660" width="120" height="60" as="geometry" />
        </mxCell>
        <mxCell id="gboxFFnKf-YxrjdxIKWj-51" value="&lt;font size=&quot;3&quot;&gt;equipamento&lt;/font&gt;" style="ellipse;whiteSpace=wrap;html=1;" vertex="1" parent="1">
          <mxGeometry x="245" y="760" width="120" height="60" as="geometry" />
        </mxCell>
        <mxCell id="gboxFFnKf-YxrjdxIKWj-52" value="&lt;font size=&quot;3&quot;&gt;comentario&lt;/font&gt;" style="ellipse;whiteSpace=wrap;html=1;" vertex="1" parent="1">
          <mxGeometry x="120" y="660" width="120" height="60" as="geometry" />
        </mxCell>
        <mxCell id="gboxFFnKf-YxrjdxIKWj-53" value="" style="endArrow=none;html=1;rounded=0;entryX=0.5;entryY=1;entryDx=0;entryDy=0;exitX=1;exitY=0;exitDx=0;exitDy=0;" edge="1" parent="1" source="gboxFFnKf-YxrjdxIKWj-52" target="gboxFFnKf-YxrjdxIKWj-24">
          <mxGeometry width="50" height="50" relative="1" as="geometry">
            <mxPoint x="252" y="659" as="sourcePoint" />
            <mxPoint x="315" y="575" as="targetPoint" />
          </mxGeometry>
        </mxCell>
        <mxCell id="gboxFFnKf-YxrjdxIKWj-54" value="" style="endArrow=none;html=1;rounded=0;entryX=0.5;entryY=1;entryDx=0;entryDy=0;exitX=0;exitY=0;exitDx=0;exitDy=0;" edge="1" parent="1" source="gboxFFnKf-YxrjdxIKWj-50" target="gboxFFnKf-YxrjdxIKWj-24">
          <mxGeometry width="50" height="50" relative="1" as="geometry">
            <mxPoint x="530" y="774" as="sourcePoint" />
            <mxPoint x="593" y="690" as="targetPoint" />
          </mxGeometry>
        </mxCell>
        <mxCell id="gboxFFnKf-YxrjdxIKWj-55" value="" style="endArrow=none;html=1;rounded=0;entryX=0.5;entryY=1;entryDx=0;entryDy=0;exitX=0.5;exitY=0;exitDx=0;exitDy=0;" edge="1" parent="1" source="gboxFFnKf-YxrjdxIKWj-51" target="gboxFFnKf-YxrjdxIKWj-24">
          <mxGeometry width="50" height="50" relative="1" as="geometry">
            <mxPoint x="430" y="764" as="sourcePoint" />
            <mxPoint x="493" y="680" as="targetPoint" />
          </mxGeometry>
        </mxCell>
        <mxCell id="gboxFFnKf-YxrjdxIKWj-57" value="&lt;font style=&quot;font-size: 18px;&quot;&gt;Usuario&lt;/font&gt;" style="rounded=0;whiteSpace=wrap;html=1;" vertex="1" parent="1">
          <mxGeometry x="-397" y="875" width="150" height="50" as="geometry" />
        </mxCell>
        <mxCell id="gboxFFnKf-YxrjdxIKWj-58" value="faz" style="rhombus;whiteSpace=wrap;html=1;" vertex="1" parent="1">
          <mxGeometry x="-67" y="860" width="80" height="80" as="geometry" />
        </mxCell>
        <mxCell id="gboxFFnKf-YxrjdxIKWj-59" value="" style="endArrow=none;html=1;rounded=0;exitX=1;exitY=0.5;exitDx=0;exitDy=0;entryX=0;entryY=0.5;entryDx=0;entryDy=0;" edge="1" parent="1" source="gboxFFnKf-YxrjdxIKWj-57" target="gboxFFnKf-YxrjdxIKWj-58">
          <mxGeometry width="50" height="50" relative="1" as="geometry">
            <mxPoint x="-17" y="1000" as="sourcePoint" />
            <mxPoint x="33" y="950" as="targetPoint" />
          </mxGeometry>
        </mxCell>
        <mxCell id="gboxFFnKf-YxrjdxIKWj-61" value="&lt;font style=&quot;font-size: 18px;&quot;&gt;1&lt;/font&gt;" style="text;html=1;align=center;verticalAlign=middle;resizable=0;points=[];autosize=1;strokeColor=none;fillColor=none;" vertex="1" parent="1">
          <mxGeometry x="-247" y="870" width="30" height="40" as="geometry" />
        </mxCell>
        <mxCell id="gboxFFnKf-YxrjdxIKWj-64" value="&lt;font size=&quot;3&quot;&gt;&lt;u&gt;id&lt;/u&gt;&lt;/font&gt;" style="ellipse;whiteSpace=wrap;html=1;" vertex="1" parent="1">
          <mxGeometry x="-487" y="970" width="120" height="60" as="geometry" />
        </mxCell>
        <mxCell id="gboxFFnKf-YxrjdxIKWj-65" value="&lt;font style=&quot;font-size: 14px;&quot;&gt;perfil&lt;/font&gt;" style="ellipse;whiteSpace=wrap;html=1;" vertex="1" parent="1">
          <mxGeometry x="-277" y="970" width="120" height="60" as="geometry" />
        </mxCell>
        <mxCell id="gboxFFnKf-YxrjdxIKWj-66" value="&lt;font size=&quot;3&quot;&gt;senha&lt;/font&gt;" style="ellipse;whiteSpace=wrap;html=1;" vertex="1" parent="1">
          <mxGeometry x="-382" y="1060" width="120" height="60" as="geometry" />
        </mxCell>
        <mxCell id="gboxFFnKf-YxrjdxIKWj-68" value="" style="endArrow=none;html=1;rounded=0;entryX=0;entryY=0;entryDx=0;entryDy=0;exitX=0.5;exitY=1;exitDx=0;exitDy=0;" edge="1" parent="1" source="gboxFFnKf-YxrjdxIKWj-57" target="gboxFFnKf-YxrjdxIKWj-65">
          <mxGeometry width="50" height="50" relative="1" as="geometry">
            <mxPoint x="-317" y="930" as="sourcePoint" />
            <mxPoint x="203" y="910" as="targetPoint" />
          </mxGeometry>
        </mxCell>
        <mxCell id="gboxFFnKf-YxrjdxIKWj-69" value="" style="endArrow=none;html=1;rounded=0;entryX=1;entryY=0;entryDx=0;entryDy=0;exitX=0.5;exitY=1;exitDx=0;exitDy=0;" edge="1" parent="1" source="gboxFFnKf-YxrjdxIKWj-57" target="gboxFFnKf-YxrjdxIKWj-64">
          <mxGeometry width="50" height="50" relative="1" as="geometry">
            <mxPoint x="33" y="920" as="sourcePoint" />
            <mxPoint x="213" y="920" as="targetPoint" />
          </mxGeometry>
        </mxCell>
        <mxCell id="gboxFFnKf-YxrjdxIKWj-70" value="" style="endArrow=none;html=1;rounded=0;entryX=0.5;entryY=0;entryDx=0;entryDy=0;exitX=0.5;exitY=1;exitDx=0;exitDy=0;" edge="1" parent="1" source="gboxFFnKf-YxrjdxIKWj-57" target="gboxFFnKf-YxrjdxIKWj-66">
          <mxGeometry width="50" height="50" relative="1" as="geometry">
            <mxPoint x="43" y="930" as="sourcePoint" />
            <mxPoint x="223" y="930" as="targetPoint" />
          </mxGeometry>
        </mxCell>
        <mxCell id="gboxFFnKf-YxrjdxIKWj-86" value="&lt;font style=&quot;font-size: 18px;&quot;&gt;Comentario&lt;/font&gt;" style="rounded=0;whiteSpace=wrap;html=1;" vertex="1" parent="1">
          <mxGeometry x="200" y="875" width="150" height="50" as="geometry" />
        </mxCell>
        <mxCell id="gboxFFnKf-YxrjdxIKWj-87" value="" style="endArrow=none;html=1;rounded=0;entryX=0;entryY=0.5;entryDx=0;entryDy=0;exitX=1;exitY=0.5;exitDx=0;exitDy=0;" edge="1" parent="1" target="gboxFFnKf-YxrjdxIKWj-86" source="gboxFFnKf-YxrjdxIKWj-58">
          <mxGeometry width="50" height="50" relative="1" as="geometry">
            <mxPoint x="20" y="900" as="sourcePoint" />
            <mxPoint x="50" y="960" as="targetPoint" />
          </mxGeometry>
        </mxCell>
        <mxCell id="gboxFFnKf-YxrjdxIKWj-88" value="&lt;font style=&quot;font-size: 18px;&quot;&gt;(1, n)&lt;/font&gt;" style="text;html=1;align=center;verticalAlign=middle;resizable=0;points=[];autosize=1;strokeColor=none;fillColor=none;" vertex="1" parent="1">
          <mxGeometry x="135" y="870" width="70" height="40" as="geometry" />
        </mxCell>
        <mxCell id="gboxFFnKf-YxrjdxIKWj-89" value="&lt;font size=&quot;3&quot;&gt;perfil&lt;/font&gt;" style="ellipse;whiteSpace=wrap;html=1;" vertex="1" parent="1">
          <mxGeometry x="360" y="940" width="120" height="60" as="geometry" />
        </mxCell>
        <mxCell id="gboxFFnKf-YxrjdxIKWj-90" value="&lt;font size=&quot;3&quot;&gt;&lt;u&gt;id&lt;/u&gt;&lt;/font&gt;" style="ellipse;whiteSpace=wrap;html=1;" vertex="1" parent="1">
          <mxGeometry x="100" y="940" width="120" height="60" as="geometry" />
        </mxCell>
        <mxCell id="gboxFFnKf-YxrjdxIKWj-91" value="" style="endArrow=none;html=1;rounded=0;entryX=0.5;entryY=1;entryDx=0;entryDy=0;exitX=1;exitY=0;exitDx=0;exitDy=0;" edge="1" parent="1" source="gboxFFnKf-YxrjdxIKWj-90" target="gboxFFnKf-YxrjdxIKWj-86">
          <mxGeometry width="50" height="50" relative="1" as="geometry">
            <mxPoint x="30" y="910" as="sourcePoint" />
            <mxPoint x="210" y="910" as="targetPoint" />
          </mxGeometry>
        </mxCell>
        <mxCell id="gboxFFnKf-YxrjdxIKWj-92" value="" style="endArrow=none;html=1;rounded=0;entryX=0.5;entryY=1;entryDx=0;entryDy=0;exitX=0;exitY=0;exitDx=0;exitDy=0;" edge="1" parent="1" source="gboxFFnKf-YxrjdxIKWj-89" target="gboxFFnKf-YxrjdxIKWj-86">
          <mxGeometry width="50" height="50" relative="1" as="geometry">
            <mxPoint x="40" y="920" as="sourcePoint" />
            <mxPoint x="220" y="920" as="targetPoint" />
          </mxGeometry>
        </mxCell>
        <mxCell id="gboxFFnKf-YxrjdxIKWj-93" value="&lt;font size=&quot;3&quot;&gt;data&lt;/font&gt;" style="ellipse;whiteSpace=wrap;html=1;" vertex="1" parent="1">
          <mxGeometry x="360" y="1020" width="120" height="60" as="geometry" />
        </mxCell>
        <mxCell id="gboxFFnKf-YxrjdxIKWj-94" value="&lt;font size=&quot;3&quot;&gt;equipamento&lt;/font&gt;" style="ellipse;whiteSpace=wrap;html=1;" vertex="1" parent="1">
          <mxGeometry x="220" y="1060" width="120" height="60" as="geometry" />
        </mxCell>
        <mxCell id="gboxFFnKf-YxrjdxIKWj-95" value="&lt;font size=&quot;3&quot;&gt;comentario&lt;/font&gt;" style="ellipse;whiteSpace=wrap;html=1;" vertex="1" parent="1">
          <mxGeometry x="90" y="1020" width="120" height="60" as="geometry" />
        </mxCell>
        <mxCell id="gboxFFnKf-YxrjdxIKWj-96" value="" style="endArrow=none;html=1;rounded=0;entryX=0.5;entryY=1;entryDx=0;entryDy=0;exitX=1;exitY=0;exitDx=0;exitDy=0;" edge="1" parent="1" source="gboxFFnKf-YxrjdxIKWj-95" target="gboxFFnKf-YxrjdxIKWj-86">
          <mxGeometry width="50" height="50" relative="1" as="geometry">
            <mxPoint x="222" y="1019" as="sourcePoint" />
            <mxPoint x="285" y="935" as="targetPoint" />
          </mxGeometry>
        </mxCell>
        <mxCell id="gboxFFnKf-YxrjdxIKWj-97" value="" style="endArrow=none;html=1;rounded=0;entryX=0.5;entryY=1;entryDx=0;entryDy=0;exitX=0;exitY=0;exitDx=0;exitDy=0;" edge="1" parent="1" source="gboxFFnKf-YxrjdxIKWj-93" target="gboxFFnKf-YxrjdxIKWj-86">
          <mxGeometry width="50" height="50" relative="1" as="geometry">
            <mxPoint x="500" y="1134" as="sourcePoint" />
            <mxPoint x="563" y="1050" as="targetPoint" />
          </mxGeometry>
        </mxCell>
        <mxCell id="gboxFFnKf-YxrjdxIKWj-98" value="" style="endArrow=none;html=1;rounded=0;entryX=0.5;entryY=1;entryDx=0;entryDy=0;exitX=0.5;exitY=0;exitDx=0;exitDy=0;" edge="1" parent="1" source="gboxFFnKf-YxrjdxIKWj-94" target="gboxFFnKf-YxrjdxIKWj-86">
          <mxGeometry width="50" height="50" relative="1" as="geometry">
            <mxPoint x="400" y="1124" as="sourcePoint" />
            <mxPoint x="463" y="1040" as="targetPoint" />
          </mxGeometry>
        </mxCell>
      </root>
    </mxGraphModel>
  </diagram>
</mxfile>
